<?xml version="1.0" standalone="no"?>
<!DOCTYPE svg PUBLIC "-//W3C//DTD SVG 20010904//EN"
 "http://www.w3.org/TR/2001/REC-SVG-20010904/DTD/svg10.dtd">
<svg version="1.0" xmlns="http://www.w3.org/2000/svg"
 width="1000.000000pt" height="1000.000000pt" viewBox="0 0 1000.000000 1000.000000"
 preserveAspectRatio="xMidYMid meet">

<g transform="translate(0.000000,1000.000000) scale(0.100000,-0.100000)"
fill="#000000" stroke="none">
<path d="M0 5106 l0 -4894 22 -5 c17 -5 19 -9 10 -20 -9 -11 -8 -14 3 -14 8 0
12 5 8 10 -3 5 3 7 13 5 11 -2 19 -8 19 -15 0 -6 4 -15 9 -20 5 -5 6 -2 1 5
-5 10 -2 13 11 10 11 -2 20 -9 20 -16 3 -25 5 -27 13 -13 5 7 14 10 20 7 6 -4
9 -11 6 -16 -3 -5 -1 -11 5 -15 5 -3 10 -1 10 5 0 7 6 10 12 8 7 -3 13 -11 13
-18 0 -7 6 -15 14 -18 8 -3 11 0 7 7 -4 6 -2 11 4 11 7 0 14 -9 17 -20 6 -23
19 -26 26 -7 4 7 8 3 12 -11 8 -23 25 -30 25 -9 1 6 9 2 19 -10 21 -25 36 -31
26 -10 -4 6 2 2 13 -10 22 -25 38 -31 26 -11 -4 7 1 5 12 -4 18 -16 24 -15
104 25 235 117 459 312 595 517 54 82 169 302 185 355 7 22 17 46 23 53 5 6 6
12 2 12 -4 0 -3 6 3 12 6 7 10 16 9 20 -1 3 2 10 6 15 5 4 7 1 5 -7 -2 -10 4
-15 19 -14 12 1 21 -4 20 -10 -1 -6 8 -10 20 -10 12 1 21 -4 20 -10 -1 -6 4
-10 11 -8 6 1 11 -4 10 -10 -2 -8 6 -13 19 -12 12 1 21 -4 20 -10 -1 -6 8 -10
20 -10 12 1 21 -4 20 -10 -1 -6 8 -10 20 -10 12 1 21 -4 20 -10 -1 -6 8 -10
20 -10 12 1 21 -4 20 -10 -1 -6 4 -10 11 -8 6 1 11 -4 10 -10 -2 -8 6 -13 19
-12 12 1 21 -4 20 -10 -1 -6 8 -10 20 -10 12 1 21 -4 20 -10 -1 -6 8 -10 20
-10 12 1 21 -4 20 -10 -1 -6 4 -10 11 -8 6 1 11 -4 10 -10 -2 -8 6 -13 19 -12
12 1 21 -4 20 -10 -1 -6 8 -10 20 -10 12 1 21 -4 20 -10 -1 -6 8 -10 20 -10
12 1 21 -4 20 -10 -1 -6 8 -10 20 -10 12 1 21 -4 20 -10 -1 -6 4 -10 11 -8 6
1 11 -4 10 -10 -2 -8 6 -13 19 -12 12 1 21 -4 20 -10 -1 -6 8 -10 20 -10 12 1
21 -4 20 -10 -1 -6 8 -10 20 -10 12 1 21 -4 20 -10 -1 -6 4 -10 11 -8 6 1 11
-4 10 -10 -2 -8 6 -13 19 -12 12 1 21 -4 20 -10 -1 -6 8 -10 20 -10 12 1 21
-4 20 -10 -1 -6 8 -10 20 -10 12 1 21 -4 20 -10 -1 -6 8 -10 20 -10 12 1 21
-4 20 -10 -1 -6 4 -10 11 -8 6 1 11 -4 10 -10 -2 -8 6 -13 19 -12 12 1 21 -4
20 -10 -1 -6 8 -10 20 -10 12 1 21 -4 20 -10 -1 -6 8 -10 20 -10 12 1 21 -4
20 -10 -1 -6 4 -10 11 -8 6 1 11 -4 10 -10 -2 -8 6 -13 19 -12 12 1 21 -4 20
-10 -1 -6 8 -10 20 -10 12 1 21 -4 20 -10 -1 -6 8 -10 20 -10 12 1 21 -4 20
-10 -1 -6 4 -10 11 -8 6 1 11 -4 10 -10 -2 -8 6 -13 19 -12 12 1 21 -4 20 -10
-1 -6 8 -10 20 -10 12 1 21 -4 20 -10 -1 -6 8 -10 20 -10 12 1 21 -4 20 -10
-1 -6 8 -10 20 -10 12 1 21 -4 20 -10 -1 -6 4 -10 11 -8 6 1 11 -4 10 -10 -2
-8 6 -13 19 -12 12 1 21 -4 20 -10 -1 -6 8 -10 20 -10 12 1 21 -4 20 -10 -1
-6 8 -10 20 -10 12 1 21 -4 20 -10 -1 -6 4 -10 11 -8 6 1 11 -4 10 -10 -2 -8
6 -13 19 -12 12 1 21 -4 20 -10 -1 -6 8 -10 20 -10 12 1 21 -4 20 -10 -1 -6 8
-10 20 -10 12 1 21 -4 20 -10 -1 -6 8 -10 20 -10 12 1 21 -4 20 -10 -1 -6 4
-10 11 -8 6 1 11 -4 10 -10 -2 -8 6 -13 19 -12 12 1 21 -4 20 -10 -1 -6 8 -10
21 -10 12 1 20 -1 17 -4 -10 -11 -55 -9 -48 1 4 6 1 7 -7 2 -8 -5 -11 -4 -6 3
4 7 -1 10 -14 7 -13 -3 -18 0 -14 7 5 7 2 8 -6 3 -9 -6 -11 -4 -5 5 5 8 4 11
-3 6 -6 -3 -13 -2 -17 4 -4 6 -11 7 -17 4 -7 -5 -8 -2 -3 6 6 9 4 11 -5 5 -9
-6 -11 -4 -5 5 5 8 4 11 -3 6 -6 -3 -13 -2 -17 4 -4 6 -11 7 -17 4 -7 -5 -8
-2 -3 6 5 8 4 11 -3 6 -6 -3 -13 -2 -17 4 -4 6 -11 7 -17 4 -7 -5 -8 -2 -3 6
5 8 4 11 -3 6 -6 -3 -13 -2 -17 4 -4 6 -11 7 -17 4 -7 -5 -8 -2 -3 6 6 9 4 11
-5 5 -9 -6 -11 -4 -5 5 6 9 4 11 -5 5 -9 -6 -11 -4 -5 5 5 8 4 11 -3 6 -6 -3
-13 -2 -17 4 -4 6 -11 7 -17 4 -7 -5 -8 -2 -3 6 5 8 4 11 -3 6 -6 -3 -13 -2
-17 4 -4 6 -11 7 -17 4 -7 -5 -8 -2 -3 6 5 8 4 11 -3 6 -6 -3 -13 -2 -17 4 -4
6 -11 7 -17 4 -7 -5 -8 -2 -3 6 6 9 4 11 -5 5 -9 -6 -11 -4 -5 5 6 9 4 11 -5
5 -9 -6 -11 -4 -5 5 5 8 4 11 -3 6 -6 -3 -13 -2 -17 4 -4 6 -11 7 -17 4 -7 -5
-8 -2 -3 6 5 8 4 11 -3 6 -6 -3 -13 -2 -17 4 -4 6 -11 7 -17 4 -7 -5 -8 -2 -3
6 5 8 4 11 -3 6 -6 -3 -13 -2 -17 4 -4 6 -11 7 -17 4 -7 -5 -8 -2 -3 6 5 8 4
11 -3 6 -6 -3 -13 -2 -17 4 -4 6 -11 7 -17 4 -7 -5 -8 -2 -3 6 6 9 4 11 -5 5
-9 -6 -11 -4 -5 5 6 9 4 11 -5 5 -9 -6 -11 -4 -5 5 5 8 4 11 -3 6 -6 -3 -13
-2 -17 4 -4 6 -11 7 -17 4 -7 -5 -8 -2 -3 6 5 8 4 11 -3 6 -6 -3 -13 -2 -17 4
-4 6 -11 7 -17 4 -7 -5 -8 -2 -3 6 5 8 4 11 -3 6 -6 -3 -13 -2 -17 4 -4 6 -11
7 -17 4 -7 -5 -8 -2 -3 6 6 9 4 11 -5 5 -9 -6 -11 -4 -5 5 6 9 4 11 -5 5 -9
-6 -11 -4 -5 5 5 8 4 11 -3 6 -6 -3 -13 -2 -17 4 -4 6 -11 7 -17 4 -7 -5 -8
-2 -3 6 5 8 4 11 -3 6 -6 -3 -13 -2 -17 4 -4 6 -11 7 -17 4 -7 -5 -8 -2 -3 6
5 8 4 11 -3 6 -6 -3 -13 -2 -17 4 -4 6 -11 7 -17 4 -7 -5 -8 -2 -3 6 6 9 4 11
-5 5 -9 -6 -11 -4 -5 5 5 8 4 11 -3 6 -6 -3 -13 -2 -17 4 -4 6 -11 7 -17 4 -7
-5 -8 -2 -3 6 6 9 4 11 -5 5 -9 -6 -11 -4 -5 5 5 8 4 11 -3 6 -6 -3 -13 -2
-17 4 -4 6 -11 7 -17 4 -7 -5 -8 -2 -3 6 5 8 4 11 -3 6 -6 -3 -13 -2 -17 4 -4
6 -11 7 -17 4 -7 -5 -8 -2 -3 6 5 8 4 11 -3 6 -6 -3 -13 -2 -17 4 -4 6 -11 7
-17 4 -7 -5 -8 -2 -3 6 6 9 4 11 -5 5 -9 -6 -11 -4 -5 5 6 9 4 11 -5 5 -9 -6
-11 -4 -5 5 5 8 4 11 -3 6 -6 -3 -13 -2 -17 4 -4 6 -11 7 -17 4 -7 -5 -8 -2
-3 6 5 8 4 11 -3 6 -6 -3 -13 -2 -17 4 -4 6 -11 7 -17 4 -7 -5 -8 -2 -3 6 5 8
4 11 -3 6 -6 -3 -13 -2 -17 4 -4 6 -11 7 -17 4 -7 -5 -8 -2 -3 6 6 9 4 11 -5
5 -9 -6 -11 -4 -5 5 5 8 4 11 -3 6 -6 -3 -13 -2 -17 4 -4 6 -11 7 -17 4 -7 -5
-8 -2 -3 6 6 9 4 11 -5 5 -9 -6 -11 -4 -5 5 5 8 4 11 -3 6 -6 -3 -13 -2 -17 4
-4 6 -11 7 -17 4 -7 -5 -8 -2 -3 6 5 8 4 11 -3 6 -6 -3 -13 -2 -17 4 -4 6 -11
7 -17 4 -7 -5 -8 -2 -3 6 5 8 4 11 -3 6 -6 -3 -13 -2 -17 4 -4 6 -11 7 -17 4
-7 -5 -8 -2 -3 6 6 9 4 11 -5 5 -9 -6 -11 -4 -5 5 6 9 4 11 -5 5 -9 -6 -11 -4
-5 5 5 8 4 11 -3 6 -6 -3 -13 -2 -17 4 -4 6 -11 7 -17 4 -7 -5 -8 -2 -3 6 5 8
4 11 -3 6 -6 -3 -13 -2 -17 4 -4 6 -11 7 -17 4 -7 -5 -8 -2 -3 6 5 8 4 11 -3
6 -6 -3 -13 -2 -17 4 -4 6 -11 7 -17 4 -7 -5 -8 -2 -3 6 6 9 4 11 -5 5 -9 -6
-11 -4 -5 5 5 8 4 11 -3 6 -6 -3 -13 -2 -17 4 -4 6 -11 7 -17 4 -7 -5 -8 -2
-3 6 6 9 4 11 -5 5 -9 -6 -11 -4 -5 5 5 8 4 11 -3 6 -6 -3 -13 -2 -17 4 -4 6
-11 7 -17 4 -7 -5 -8 -2 -3 6 5 8 4 11 -3 6 -6 -3 -13 -2 -17 4 -4 6 -11 7
-17 4 -7 -5 -8 -2 -3 6 5 8 4 11 -3 6 -6 -3 -13 -2 -17 4 -4 6 -11 7 -17 4 -7
-5 -8 -2 -3 6 6 9 4 11 -5 5 -9 -6 -11 -4 -5 5 6 9 4 11 -5 5 -9 -6 -11 -4 -5
5 5 8 4 11 -3 6 -6 -3 -13 -2 -17 4 -4 6 -11 7 -17 4 -6 -4 -8 -3 -5 2 3 6 -5
10 -18 10 -24 0 -25 -11 -2 -11 7 -1 11 -6 10 -12 -1 -6 8 -10 20 -9 13 1 21
-4 19 -12 -1 -6 4 -11 10 -10 7 2 12 -2 11 -8 -1 -6 8 -11 20 -10 12 0 21 -4
20 -10 -1 -6 8 -11 20 -10 12 0 21 -4 20 -10 -1 -6 8 -11 20 -10 13 1 21 -4
19 -12 -1 -6 4 -11 10 -10 7 2 12 -2 11 -8 -1 -6 8 -11 20 -10 12 0 21 -4 20
-10 -1 -6 8 -11 20 -10 12 0 21 -4 20 -10 -1 -6 8 -11 20 -10 12 0 21 -4 20
-10 -1 -6 8 -11 20 -10 13 1 21 -4 19 -12 -1 -6 4 -11 10 -10 7 2 12 -2 11 -8
-1 -6 8 -11 20 -10 12 0 21 -4 20 -10 -1 -6 8 -11 20 -10 12 0 21 -4 20 -10
-1 -6 8 -11 20 -10 13 1 21 -4 19 -12 -1 -6 4 -11 10 -10 7 2 12 -2 11 -8 -1
-6 8 -11 20 -10 12 0 21 -4 20 -10 -1 -6 8 -11 20 -10 12 0 21 -4 20 -10 -1
-6 8 -11 20 -10 12 0 21 -4 20 -10 -1 -6 8 -11 20 -10 13 1 21 -4 19 -12 -1
-6 4 -11 10 -10 7 2 12 -2 11 -8 -1 -6 8 -11 20 -10 12 0 21 -4 20 -10 -1 -6
8 -11 20 -10 12 0 21 -4 20 -10 -1 -6 8 -11 20 -10 13 1 21 -4 19 -12 -1 -6 4
-11 10 -10 7 2 12 -2 11 -8 -1 -6 8 -11 20 -10 12 0 21 -4 20 -10 -1 -6 8 -11
20 -10 12 0 21 -4 20 -10 -1 -6 8 -11 20 -10 12 0 21 -4 20 -10 -1 -6 8 -11
20 -10 13 1 21 -4 19 -12 -1 -6 4 -11 10 -10 7 2 12 -2 11 -8 -1 -6 8 -11 20
-10 12 0 21 -4 20 -10 -1 -6 8 -11 20 -10 12 0 21 -4 20 -10 -1 -6 8 -11 20
-10 13 1 21 -4 19 -12 -1 -6 4 -11 10 -10 7 2 12 -2 11 -8 -1 -6 8 -11 20 -10
12 0 21 -4 20 -10 -1 -6 8 -11 20 -10 12 0 21 -4 20 -10 -1 -6 8 -11 20 -10
12 0 21 -4 20 -10 -1 -6 8 -11 20 -10 13 1 21 -4 19 -12 -1 -6 4 -11 10 -10 7
2 12 -2 11 -8 -1 -6 8 -11 20 -10 12 0 21 -4 20 -10 -1 -6 8 -11 20 -10 12 0
21 -4 20 -10 -1 -6 8 -11 20 -10 13 1 21 -4 19 -12 -1 -6 4 -11 10 -10 7 2 12
-2 11 -8 -1 -6 8 -11 20 -10 12 0 21 -4 20 -10 -1 -6 8 -11 20 -10 12 0 21 -4
20 -10 -1 -6 8 -11 20 -10 13 1 21 -4 19 -12 -1 -6 4 -11 10 -10 7 2 12 -2 11
-8 -1 -6 8 -11 20 -10 12 0 21 -4 20 -11 -2 -7 6 -10 17 -8 11 2 22 0 25 -5 3
-6 1427 -9 3480 -10 l3475 0 0 5000 0 5000 -5000 0 -5000 0 0 -4894z m2610
1139 l0 -215 -55 0 -55 0 0 215 0 215 55 0 55 0 0 -215z m4052 176 c27 -10 27
-10 11 -50 l-15 -39 -72 5 c-66 5 -73 4 -94 -20 -25 -27 -39 -90 -28 -132 11
-42 41 -65 86 -65 38 0 40 2 40 30 0 28 -3 30 -35 30 -35 0 -35 0 -35 45 l0
46 88 -3 87 -3 3 -108 c3 -124 7 -120 -109 -132 -131 -14 -216 39 -239 148
-33 163 61 274 225 262 34 -2 73 -8 87 -14z m-4817 -10 c49 -22 73 -48 91 -98
27 -77 12 -161 -39 -220 -46 -52 -81 -63 -197 -63 l-100 0 0 200 0 200 103 0
c77 0 112 -5 142 -19z m1580 0 c49 -22 73 -48 91 -98 27 -77 12 -161 -39 -220
-46 -52 -81 -63 -197 -63 l-100 0 0 200 0 200 103 0 c77 0 112 -5 142 -19z
m471 -181 c35 -107 64 -196 64 -198 0 -2 -28 -2 -62 0 -60 3 -62 4 -70 36 -9
32 -9 32 -73 32 l-64 0 -7 -35 -6 -35 -65 0 c-48 0 -64 3 -60 13 2 6 30 91 61
187 31 96 59 181 61 188 4 9 25 12 81 10 l77 -3 63 -195z m384 155 l0 -45 -50
0 -50 0 0 -155 0 -155 -55 0 -55 0 0 155 0 155 -50 0 -50 0 0 45 0 45 155 0
155 0 0 -45z m345 -127 c31 -95 60 -185 65 -200 l9 -28 -63 0 -64 0 -6 35 -7
35 -64 0 c-64 0 -64 0 -73 -32 -8 -32 -10 -33 -70 -36 -34 -2 -62 0 -62 4 0 8
121 376 127 387 2 4 37 7 78 7 l74 0 56 -172z m1371 153 c74 -34 112 -111 99
-205 -16 -127 -86 -176 -250 -176 l-95 0 0 200 0 200 103 0 c78 0 112 -5 143
-19z m284 -181 l0 -200 -60 0 -60 0 0 200 0 200 60 0 60 0 0 -200z m610 0 l0
-200 -60 0 -60 0 0 200 0 200 60 0 60 0 0 -200z m360 155 l0 -45 -50 0 -50 0
0 -155 0 -155 -55 0 -55 0 0 155 0 155 -50 0 -50 0 0 45 0 45 155 0 155 0 0
-45z m348 -147 c35 -106 62 -196 62 -200 0 -5 -27 -8 -60 -8 l-59 0 -7 35 -6
36 -66 -3 c-65 -3 -66 -3 -74 -35 -8 -33 -9 -33 -68 -33 -33 0 -60 3 -60 6 0
3 28 93 62 200 l62 194 76 0 76 0 62 -192z m222 37 l0 -155 75 0 75 0 0 -45 0
-45 -130 0 -130 0 0 200 0 200 55 0 55 0 0 -155z m-5594 56 c49 -22 74 -68 74
-135 l0 -46 -96 0 c-72 0 -95 -3 -92 -12 12 -35 98 -44 151 -16 15 8 17 3 17
-36 0 -45 -1 -45 -42 -57 -53 -14 -141 -6 -174 16 -43 28 -64 74 -64 141 0 47
5 69 23 95 44 66 124 86 203 50z m668 5 c58 -24 66 -46 66 -183 l0 -123 -39 0
c-31 0 -41 4 -46 21 l-7 21 -23 -22 c-14 -13 -42 -24 -68 -27 -38 -5 -48 -1
-76 23 -23 21 -32 38 -33 64 -2 77 30 107 128 117 56 6 64 12 40 32 -11 9 -25
10 -53 2 -55 -16 -60 -14 -72 21 -13 37 -9 43 39 56 51 15 106 14 144 -2z
m2203 -3 c51 -24 63 -61 63 -193 l0 -110 -40 0 c-24 0 -42 6 -47 15 -8 13 -14
12 -48 -6 -48 -24 -108 -21 -137 9 -11 10 -22 37 -25 59 -10 74 28 110 128
121 61 7 62 8 44 25 -12 12 -26 16 -41 13 -13 -3 -35 -9 -49 -12 -25 -6 -35 7
-48 61 -3 12 74 33 126 34 22 1 55 -7 74 -16z m243 -102 c0 -103 1 -110 21
-116 40 -13 54 16 57 125 l4 100 54 0 54 0 0 -155 0 -155 -45 0 c-33 0 -45 4
-45 15 0 19 -3 19 -42 -5 -42 -25 -84 -25 -125 0 -41 25 -53 67 -53 198 l0
102 60 0 60 0 0 -109z m-3683 -883 c34 -10 65 -22 67 -27 5 -7 -47 -147 -58
-158 -2 -3 -36 6 -76 18 -99 30 -153 23 -196 -24 -40 -44 -54 -91 -54 -187 0
-87 25 -149 73 -184 39 -29 150 -27 227 3 30 11 56 21 58 21 1 0 1 -41 0 -92
l-3 -91 -40 -15 c-65 -23 -244 -28 -307 -7 -151 49 -228 174 -228 370 0 130
34 226 107 298 100 101 258 128 430 75z m1679 7 c155 -51 234 -199 221 -413
-9 -157 -71 -263 -185 -319 -53 -26 -65 -28 -182 -28 -122 0 -127 1 -192 33
-105 52 -158 133 -179 276 -29 197 47 376 188 438 91 40 227 45 329 13z m3217
-2 c38 -9 71 -21 73 -28 3 -6 -5 -36 -17 -66 -11 -30 -25 -64 -29 -76 l-9 -21
-61 19 c-213 66 -346 -56 -300 -276 22 -105 108 -162 209 -140 30 6 31 8 31
61 l0 54 -65 0 -65 0 0 85 0 85 165 0 165 0 0 -210 0 -209 -37 -11 c-142 -39
-342 -40 -430 -1 -63 28 -136 103 -164 167 -44 103 -45 271 -3 372 75 182 276
255 537 195z m-5614 -353 c67 -203 124 -376 127 -385 6 -14 -8 -15 -112 -13
l-118 3 -16 65 -16 65 -121 3 -121 3 -17 -58 c-9 -32 -18 -64 -20 -70 -3 -10
-36 -13 -120 -13 -106 0 -116 2 -111 18 36 111 237 730 241 740 3 9 41 12 144
12 l139 0 121 -370z m1429 278 l3 -88 -96 0 -95 0 0 -295 0 -295 -105 0 -105
0 0 295 0 295 -95 0 -95 0 0 83 c0 46 3 87 7 90 4 4 135 6 292 5 l286 -3 3
-87z m310 -295 l2 -383 -105 0 -105 0 0 378 c0 208 3 382 7 386 4 4 50 5 103
4 l95 -3 3 -382z m5690 25 c66 -200 123 -373 126 -385 7 -23 7 -23 -108 -23
l-114 0 -18 70 -18 70 -122 0 -122 0 -18 -70 -18 -70 -117 0 -117 0 82 253
c45 138 102 312 126 385 l43 132 138 0 138 0 119 -362z m-4302 165 c54 -104
114 -218 134 -255 l36 -67 -4 254 -5 255 97 0 96 0 0 -380 0 -380 -137 0 -138
0 -124 243 c-68 133 -129 249 -135 258 -8 12 -10 -53 -8 -242 l3 -259 -95 0
-96 0 0 380 0 380 139 0 140 0 97 -187z m1213 168 c97 -30 154 -80 199 -171
25 -51 27 -65 27 -175 -1 -151 -22 -213 -99 -291 -85 -84 -132 -98 -358 -102
l-188 -4 0 381 0 381 179 0 c148 0 190 -3 240 -19z m571 -361 l0 -380 -105 0
-105 0 0 380 0 380 105 0 105 0 0 -380z m1160 0 l0 -380 -105 0 -105 0 0 380
0 380 105 0 105 0 0 -380z m690 295 l0 -85 -90 0 -90 0 0 -295 0 -295 -110 0
-110 0 0 295 0 295 -90 0 -90 0 0 85 0 85 290 0 290 0 0 -85z m1090 -210 l0
-295 145 0 145 0 0 -85 0 -85 -250 0 -250 0 0 380 0 380 105 0 105 0 0 -295z
m868 213 l-3 -83 -122 -3 -123 -3 0 -54 0 -55 115 0 115 0 0 -85 0 -85 -115 0
-115 0 0 -70 0 -70 125 0 125 0 0 -85 0 -85 -230 0 -230 0 0 380 0 380 230 0
231 0 -3 -82z m-1559 -1040 c55 -106 113 -217 129 -247 l30 -53 -2 243 -1 244
88 3 87 3 0 -366 0 -365 -129 0 -130 0 -128 249 -128 249 4 -249 3 -249 -91 0
-91 0 0 365 0 365 129 0 130 0 100 -192z m921 107 l0 -85 -115 0 -115 0 0 -50
0 -50 105 0 105 0 0 -85 0 -85 -105 0 -105 0 0 -65 0 -65 115 0 115 0 0 -80 0
-80 -215 0 -215 0 0 365 0 365 215 0 215 0 0 -85z m620 0 l0 -85 -85 0 -85 0
0 -280 0 -280 -100 0 -100 0 0 280 0 280 -90 0 -90 0 0 85 0 85 275 0 275 0 0
-85z m-2061 -480 c33 -17 41 -33 41 -84 0 -48 -22 -78 -65 -90 -91 -25 -168
49 -135 130 23 54 100 75 159 44z"/>
<path d="M1720 6230 c0 -110 0 -110 24 -110 42 0 77 39 83 93 9 79 -24 127
-88 127 -18 0 -19 -8 -19 -110z"/>
<path d="M3300 6230 c0 -110 0 -110 24 -110 39 0 76 39 83 87 10 79 -21 133
-77 133 l-30 0 0 -110z"/>
<path d="M3742 6291 c-7 -34 -15 -68 -19 -76 -4 -12 3 -15 31 -15 20 0 36 3
36 8 0 4 -8 38 -18 76 l-18 68 -12 -61z"/>
<path d="M4477 6277 c-9 -36 -17 -69 -17 -72 0 -3 16 -5 35 -5 40 0 40 -4 16
79 l-18 65 -16 -67z"/>
<path d="M5870 6230 c0 -110 0 -110 24 -110 14 0 38 11 53 24 25 22 28 30 28
91 0 58 -3 69 -24 86 -13 10 -36 19 -52 19 l-29 0 0 -110z"/>
<path d="M7456 6330 c-3 -8 -12 -41 -20 -72 l-14 -58 39 0 c21 0 39 1 39 3 -4
32 -40 138 -44 127z"/>
<path d="M2124 6253 c-17 -17 -17 -18 4 -21 12 -2 34 -2 49 0 26 3 26 4 9 21
-10 9 -24 17 -31 17 -7 0 -21 -8 -31 -17z"/>
<path d="M2787 6153 c-13 -12 -7 -41 9 -47 22 -9 54 11 54 34 0 15 -7 20 -28
20 -16 0 -32 -3 -35 -7z"/>
<path d="M4987 6153 c-13 -12 -7 -44 8 -50 18 -6 55 23 55 44 0 13 -51 19 -63
6z"/>
<path d="M3113 5180 c-55 -33 -68 -70 -68 -195 0 -164 36 -217 147 -217 100 0
142 63 142 212 1 78 -3 103 -22 142 -37 74 -128 102 -199 58z"/>
<path d="M647 5082 c-15 -64 -30 -127 -33 -139 -6 -22 -4 -23 65 -23 39 0 71
3 71 8 1 16 -65 272 -70 272 -3 0 -17 -53 -33 -118z"/>
<path d="M8105 5185 c-4 -16 -21 -80 -36 -142 -16 -62 -29 -117 -29 -122 0 -7
29 -11 75 -11 41 0 75 3 74 8 0 4 -17 72 -38 152 -33 124 -40 141 -46 115z"/>
<path d="M5070 4979 l0 -212 55 6 c115 12 157 62 163 197 7 152 -42 220 -160
220 l-58 0 0 -211z"/>
</g>
</svg>
